<?xml version="1.0" encoding="UTF-8"?>
<svg width="88px" height="48px" viewBox="0 0 88 48" version="1.1" xmlns="http://www.w3.org/2000/svg" xmlns:xlink="http://www.w3.org/1999/xlink">
    <!-- Generator: Sketch 49.1 (51147) - http://www.bohemiancoding.com/sketch -->
    <title>issoft_logo</title>
    <desc>Created with Sketch.</desc>
    <defs></defs>
    <g id="blog" stroke="none" stroke-width="1" fill="none" fill-rule="evenodd">
        <g id="index" transform="translate(-50.000000, -42.000000)" fill="#FFFFFF">
            <g id="header" transform="translate(50.000000, 42.000000)">
                <g id="issoft_logo">
                    <g id="Group-3">
                        <path d="M23.874502,48 C10.6889786,48 0,37.254834 0,24 C0,10.745166 10.6889786,0 23.874502,0 C37.0600254,0 47.749004,10.745166 47.749004,24 C47.749004,37.254834 37.0600254,48 23.874502,48 Z M15.0336997,33.809436 L19.6031578,14.4147519 L15.1352494,14.4147519 L10.6673307,33.809436 L15.0336997,33.809436 Z M20.432434,28.0835383 C20.4853212,31.8051059 23.4866725,33.97159 28.3522992,33.97159 C33.2708131,33.97159 36.4043825,31.5392797 36.4043825,27.7246728 C36.4043825,24.6942535 34.7119906,22.9796741 30.9437742,22.2486519 L28.4712955,21.7834559 C26.4748019,21.3714252 25.628606,20.7998987 25.628606,19.7631763 C25.628606,18.5935408 26.75246,17.8226446 28.4448518,17.8226446 C30.190131,17.8226446 31.4726467,18.6599973 31.5651994,20.0555852 L36.0341717,20.0555852 C35.9812845,16.4536394 33.1650386,14.1276596 28.3919646,14.1276596 C23.9758795,14.1276596 20.8026447,16.5200959 20.8026447,20.2416636 C20.8026447,23.1524611 22.6140329,25.0664102 26.1310348,25.7442672 L28.6299572,26.2360458 C30.7983343,26.6879504 31.6048648,27.2063116 31.6048648,28.2696167 C31.6048648,29.4259609 30.3752363,30.2766049 28.4845173,30.2766049 C26.6863509,30.2766049 25.2187298,29.3993783 25.0468462,28.0835383 L20.432434,28.0835383 Z" id="Combined-Shape"></path>
                    </g>
                    <path d="M53.8446215,31.1342938 L55.4719778,31.1342938 C55.5761286,32.0045983 56.4418821,32.5738951 57.5875409,32.5738951 C58.7201809,32.5738951 59.5078213,32.0111419 59.5078213,31.2259048 C59.5078213,30.545366 59.0261239,30.1527475 57.8414085,29.8713709 L56.624146,29.5834506 C54.8926389,29.1842884 54.0724514,28.3467022 54.0724514,26.9987119 C54.0724514,25.3235395 55.5240532,24.1914894 57.5680126,24.1914894 C59.6380098,24.1914894 61.0049891,25.3169958 61.0440456,26.979081 L59.4427271,26.979081 C59.364614,26.0956893 58.6290489,25.5656542 57.5549938,25.5656542 C56.4939575,25.5656542 55.7779208,26.0891456 55.7779208,26.8743827 C55.7779208,27.5025724 56.2531088,27.8690163 57.405277,28.1438493 L58.4858416,28.3925077 C60.3931031,28.8309318 61.2002718,29.6227125 61.2002718,31.0295956 C61.2002718,32.8225536 59.7681983,33.94806 57.496409,33.94806 C55.3352798,33.94806 53.9162252,32.8749027 53.8446215,31.1342938 Z M66.9400803,24.1914894 C69.6740388,24.1914894 71.392527,26.0695147 71.392527,29.0730465 C71.392527,32.0765783 69.6740388,33.94806 66.9400803,33.94806 C64.1996124,33.94806 62.4811242,32.0765783 62.4811242,29.0730465 C62.4811242,26.0695147 64.1996124,24.1914894 66.9400803,24.1914894 Z M66.9400803,25.6310907 C65.2606487,25.6310907 64.1996124,26.9659937 64.1996124,29.0730465 C64.1996124,31.1735557 65.2606487,32.5084587 66.9400803,32.5084587 C68.6130026,32.5084587 69.6805483,31.1735557 69.6805483,29.0730465 C69.6805483,26.9659937 68.6130026,25.6310907 66.9400803,25.6310907 Z M74.7433766,33.7910126 L73.0639449,33.7910126 L73.0639449,24.3485368 L79.0526159,24.3485368 L79.0526159,25.7750508 L74.7433766,25.7750508 L74.7433766,28.5626424 L78.6815787,28.5626424 L78.6815787,29.9368073 L74.7433766,29.9368073 L74.7433766,33.7910126 Z M84.9934933,33.7910126 L83.3140617,33.7910126 L83.3140617,25.7750508 L80.4629335,25.7750508 L80.4629335,24.3485368 L87.8446215,24.3485368 L87.8446215,25.7750508 L84.9934933,25.7750508 L84.9934933,33.7910126 Z" id="soft"></path>
                </g>
            </g>
        </g>
    </g>
</svg>